<svg width="48" height="48" viewBox="0 0 48 48" fill="none" xmlns="http://www.w3.org/2000/svg">
<path d="M42.9382 2.33203H11.8998C9.20609 2.33203 7.01455 4.50308 7.01455 7.163L6.81452 34.494H0.757211C0.327935 34.494 0 34.8735 0 35.3028V39.0642C0 42.5853 2.81781 45.465 6.21862 45.6229V45.6681H32.3563V45.6172C32.5506 45.6252 32.6683 45.6681 32.8019 45.6681H32.8204C36.4475 45.6468 39.3712 42.6905 39.3522 39.0634V15.1579H47.2428C47.672 15.1579 48 14.7693 48 14.3404V7.43894C48.0049 4.63403 45.7431 2.35215 42.9382 2.33203V2.33203ZM6.5587 44.1134H6.55339C3.78833 44.1134 1.55465 41.8281 1.55465 39.0634V36.0486H26.2348V39.0505C26.2287 40.8003 26.9199 42.4802 28.1553 43.7191C28.2867 43.8511 28.4241 43.9191 28.5645 44.1134H6.5587ZM37.7976 39.0627C37.7976 41.8281 35.5855 44.1134 32.8193 44.1134H32.8034C30.0235 44.0933 27.783 41.8308 27.7895 39.0509V35.3028C27.7917 34.8675 27.4475 34.5092 27.0121 34.494H8.36917L8.5692 7.16832C8.5692 5.3605 10.0631 3.88669 11.8998 3.88669H39.2683C38.3824 4.85835 37.7976 6.08772 37.7976 7.45982V39.0627ZM46.4453 7.4526V13.6033H39.3522V7.4583C39.3522 5.5127 40.9706 3.88669 42.9155 3.88669H42.9371C44.8869 3.90604 46.4544 5.49676 46.4453 7.44691V7.4526Z" fill="#2C2C2C"/>
<path d="M18.2533 21.4654L22.2611 24.2054C22.5226 24.3857 22.8683 24.3857 23.1299 24.2054L27.1254 21.4661C28.5135 20.5191 29.5386 18.5394 29.5386 16.8606V11.3168C29.547 11.0238 29.3853 10.752 29.1242 10.6188L23.0221 7.6173C22.808 7.51103 22.5567 7.51103 22.3427 7.6173L16.2519 10.6105C15.9908 10.7437 15.8295 11.0155 15.8382 11.3085V16.8606C15.8382 18.5394 16.8657 20.5191 18.2533 21.4654ZM17.3929 11.7935L22.6884 9.18069L27.984 11.8008V16.8606C27.984 18.0315 27.2165 19.5209 26.2483 20.1809L22.6793 22.6219L19.1244 20.1813C18.1562 19.5205 17.3929 18.0315 17.3929 16.8606V11.7935Z" fill="#2C2C2C"/>
<path d="M21.3736 18.0342C21.5186 18.1822 21.7167 18.2661 21.9239 18.2672H21.9258C22.1323 18.2665 22.33 18.1837 22.4754 18.0372L25.5677 14.9439C25.8717 14.6402 25.8717 14.1476 25.568 13.8439C25.2648 13.5399 24.7721 13.5399 24.4685 13.8435L21.9285 16.3831L20.9132 15.358C20.6107 15.0528 20.1184 15.0505 19.8132 15.353C19.5081 15.6555 19.5062 16.1478 19.8083 16.453L21.3736 18.0342Z" fill="#2C2C2C"/>
<path d="M32.3561 26.4292H13.7002C13.2709 26.4292 12.9229 26.7773 12.9229 27.2065C12.9229 27.6358 13.2709 27.9839 13.7002 27.9839H32.3561C32.7853 27.9839 33.1334 27.6358 33.1334 27.2065C33.1334 26.7773 32.7853 26.4292 32.3561 26.4292Z" fill="#2C2C2C"/>
<path d="M32.3561 30.0243H13.7002C13.2709 30.0243 12.9229 30.3723 12.9229 30.8016C12.9229 31.2309 13.2709 31.5789 13.7002 31.5789H32.3561C32.7853 31.5789 33.1334 31.2309 33.1334 30.8016C33.1334 30.3723 32.7853 30.0243 32.3561 30.0243Z" fill="#2C2C2C"/>
</svg>
