<svg width="48" height="48" viewBox="0 0 48 48" fill="none" xmlns="http://www.w3.org/2000/svg">
<g clip-path="url(#clip0)">
<path d="M47.3738 0.625406C47.3715 0.623156 47.369 0.621188 47.3667 0.618937C46.9697 0.225469 46.4226 0 45.8641 0H45.8613C45.3786 0 44.9061 0.165937 44.5311 0.466781C39.4265 4.54397 34.303 8.75241 29.3025 12.9749C28.0866 14.0016 26.8696 15.0363 25.6537 16.0767L11.7714 2.19459C10.4006 0.823969 8.17031 0.824156 6.79959 2.19459L0.206434 8.78784C-0.0681601 9.06253 -0.0681601 9.50766 0.206434 9.78225C0.481027 10.0568 0.926246 10.0568 1.20075 9.78225L5.80528 5.17781L6.8115 6.18403L2.20706 10.7885C1.93246 11.0632 1.93246 11.5083 2.20706 11.7829C2.34431 11.9201 2.52431 11.9887 2.70421 11.9887C2.88412 11.9887 3.06412 11.9201 3.20137 11.7829L7.8059 7.17844L8.81212 8.18466L4.20759 12.7891C3.933 13.0638 3.933 13.5089 4.20759 13.7835C4.34484 13.9208 4.52484 13.9894 4.70475 13.9894C4.88465 13.9894 5.06465 13.9208 5.2019 13.7835L9.80643 9.17897L10.8127 10.1852L6.20821 14.7896C5.93362 15.0643 5.93362 15.5094 6.20821 15.784C6.34546 15.9213 6.52546 15.9899 6.70537 15.9899C6.88528 15.9899 7.06528 15.9213 7.20253 15.784L11.807 11.1796L12.8132 12.1858L8.20875 16.7902C7.93415 17.0649 7.93415 17.5101 8.20875 17.7847C8.34599 17.9219 8.526 17.9905 8.7059 17.9905C8.88581 17.9905 9.06581 17.9219 9.20306 17.7847L13.8075 13.1802L14.8137 14.1864L10.2093 18.7909C9.93468 19.0656 9.93468 19.5107 10.2093 19.7853C10.3465 19.9225 10.5265 19.9912 10.7064 19.9912C10.8863 19.9912 11.0663 19.9225 11.2036 19.7853L15.808 15.1808L16.8142 16.1871L12.2098 20.7915C11.9352 21.0662 11.9352 21.5113 12.2098 21.7859C12.3471 21.9232 12.5271 21.9918 12.707 21.9918C12.8869 21.9918 13.0669 21.9232 13.2041 21.7859L17.8086 17.1815L18.8149 18.1878L14.2104 22.7922C13.9358 23.0669 13.9358 23.512 14.2104 23.7866C14.3477 23.9239 14.5277 23.9925 14.7076 23.9925C14.8875 23.9925 15.0675 23.9239 15.2047 23.7866L19.8093 19.1821L20.8509 20.2238C18.692 22.1039 16.5442 23.9952 14.4205 25.8889C14.4196 25.8889 14.4196 25.8889 14.4196 25.8899C13.7887 26.451 13.1006 27.0973 12.4218 27.7095C12.0059 28.0103 12.0851 28.5392 12.2915 28.7455C12.2915 28.7455 12.2915 28.7465 12.2924 28.7465C12.9693 29.5658 13.3433 30.6121 13.3433 31.6939C13.3433 32.9586 12.8568 34.1417 11.9728 35.0248C11.9639 35.0337 9.86137 37.1363 9.85218 37.1454C6.79453 40.2743 1.40981 38.1392 1.40671 33.7078C1.40859 31.0175 3.58143 28.7954 6.32662 28.7934C7.82184 28.7944 9.21778 29.46 10.1562 30.6178C10.4107 30.9315 10.8781 30.9654 11.1743 30.6966C11.1781 30.6937 11.1809 30.6909 11.1847 30.6872L11.1912 30.6815C11.5206 30.3854 11.4973 29.8519 11.1293 29.5883C9.92746 28.1896 8.17903 27.3872 6.33131 27.3872H6.32193C2.8065 27.3872 -0.00356642 30.2498 0.000558584 33.7078C-0.00253517 36.3135 1.58981 38.6151 3.94546 39.5719C5.34421 40.1383 6.87646 40.1773 8.26059 39.7336C6.94134 43.8376 10.0117 48 14.2792 48H14.2867C17.7739 48 20.6158 45.177 20.612 41.6756C20.6138 40.0116 19.9726 38.4412 18.8092 37.2524C18.8098 37.2517 20.2448 35.6203 20.2448 35.6203C22.778 32.8015 25.2836 29.9699 27.7589 27.1314L28.8183 28.1908L24.2138 32.7952C23.9392 33.0699 23.9392 33.5151 24.2138 33.7897C24.3512 33.9269 24.5312 33.9955 24.7111 33.9955C24.891 33.9955 25.071 33.9269 25.2083 33.7897L29.8128 29.1852L30.819 30.1914L26.2146 34.7959C25.94 35.0706 25.94 35.5157 26.2146 35.7903C26.3519 35.9275 26.5319 35.9962 26.7118 35.9962C26.8917 35.9962 27.0717 35.9275 27.2091 35.7903L31.8135 31.1858L32.8196 32.192L28.2152 36.7964C27.9406 37.0711 27.9406 37.5162 28.2152 37.7908C28.3525 37.9281 28.5325 37.9967 28.7124 37.9967C28.8923 37.9967 29.0723 37.9281 29.2097 37.7908L33.8141 33.1864L34.8202 34.1925L30.2158 38.797C29.9412 39.0717 29.9412 39.5168 30.2158 39.7914C30.3531 39.9287 30.5332 39.9973 30.7131 39.9973C30.893 39.9973 31.073 39.9287 31.2103 39.7914L35.8147 35.1869L36.821 36.1931L32.2165 40.7976C31.9419 41.0723 31.9419 41.5174 32.2165 41.792C32.3539 41.9292 32.5339 41.9978 32.7138 41.9978C32.8937 41.9978 33.0737 41.9292 33.211 41.792L37.8155 37.1875L38.8216 38.1937L34.2172 42.7981C33.9426 43.0728 33.9426 43.5179 34.2172 43.7925C34.3545 43.9297 34.5345 43.9984 34.7144 43.9984C34.8943 43.9984 35.0743 43.9297 35.2117 43.7925L39.8161 39.1881L40.8222 40.1942L36.2178 44.7986C35.9432 45.0733 35.9432 45.5184 36.2178 45.793C36.3551 45.9303 36.5351 45.9989 36.715 45.9989C36.8949 45.9989 37.0749 45.9303 37.2123 45.793L41.8167 41.1886L42.8228 42.1947L38.2184 46.7992C37.9438 47.0738 37.9438 47.519 38.2184 47.7936C38.3557 47.9308 38.5357 47.9994 38.7156 47.9994C38.8956 47.9994 39.0756 47.9308 39.2129 47.7936L44.3138 42.6925C44.314 42.6923 44.3143 42.6921 44.3146 42.6919C44.3149 42.6917 44.3151 42.6914 44.3152 42.6911L45.8061 41.2003C46.4701 40.5363 46.8358 39.6534 46.8358 38.7143C46.8358 37.7752 46.4701 36.8924 45.8061 36.2284L31.9085 22.3317C37.2995 16.0428 42.5257 9.73481 47.5331 3.46781C48.2126 2.61741 48.144 1.39547 47.3738 0.625406ZM6.79968 4.18341L7.79399 3.18909C8.61637 2.36672 9.95465 2.36672 10.7771 3.18909L24.5835 16.9956C23.6928 17.7607 22.8028 18.528 21.9146 19.2985L6.79968 4.18341ZM44.8115 37.2234C45.2099 37.6218 45.4294 38.1515 45.4294 38.7149C45.4294 39.2783 45.2099 39.808 44.8115 40.2064L43.8172 41.2007C43.3525 40.7362 29.682 27.0656 28.6844 26.0681C29.456 25.18 30.2249 24.2914 30.9901 23.4022L44.8115 37.2234ZM19.5901 34.2435C19.2493 33.9826 18.3407 33.5309 18.1896 32.248C18.1474 31.8938 17.8483 31.6274 17.493 31.6274C17.0682 31.6274 16.7445 31.9963 16.7927 32.4131C16.7936 32.4131 16.7936 32.4131 16.7936 32.4131C16.9277 33.5596 17.5502 34.5731 18.5008 35.1927C18.5505 35.2256 18.6002 35.2593 18.6517 35.2968C18.1641 35.8532 17.7615 36.3217 17.2999 36.8315C17.1714 36.974 17.1058 37.1661 17.1208 37.3573C17.1349 37.5486 17.2296 37.7286 17.3786 37.8495C18.5587 38.8128 19.2047 40.1992 19.2058 41.6755C19.2038 44.3853 17.0209 46.5918 14.284 46.5937C11.579 46.5901 9.36225 44.4099 9.36225 41.6755C9.36543 39.4502 10.7729 38.2584 10.881 38.1055L12.9669 36.0196C14.1161 34.8704 14.75 33.3157 14.75 31.6939C14.7509 30.5089 14.4115 29.3642 13.7704 28.3855C14.3209 27.8821 14.7997 27.4354 15.3557 26.9398L15.3585 26.9361C30.6036 13.3431 45.2292 1.65834 45.5041 1.50094C45.3156 1.68947 17.8821 29.1112 17.7555 29.2537C17.4977 29.5444 17.5249 29.9897 17.8146 30.2466C18.1057 30.5059 18.5517 30.4755 18.8074 30.1875C18.8915 30.0917 46.2976 2.69559 46.4985 2.49469C46.441 2.59584 35.1174 16.9387 19.5901 34.2435Z" fill="#2C2C2C"/>
<path d="M8.81486 31.2259C6.59702 29.0081 2.8128 30.6062 2.81299 33.7113C2.81299 34.6498 3.17889 35.5325 3.8433 36.1968C4.52871 36.8821 5.42871 37.2246 6.32908 37.2246C7.22918 37.2246 8.12955 36.8819 8.81486 36.1968C10.1871 34.8248 10.1873 32.5979 8.81486 31.2259ZM7.82064 35.2023C6.99818 36.0244 5.65999 36.0246 4.83752 35.2023C3.52033 33.8852 4.44264 31.6035 6.32908 31.6035C8.22096 31.6036 9.13183 33.8913 7.82064 35.2023Z" fill="#2C2C2C"/>
<path d="M14.2838 38.161C12.8381 38.161 11.5962 38.9911 11.0427 40.3274C10.4865 41.6703 10.776 43.1394 11.7981 44.1614C12.4771 44.8401 13.3517 45.196 14.2548 45.196C14.7111 45.196 15.1748 45.1051 15.6239 44.9191C16.9657 44.3631 17.7993 43.1204 17.7993 41.6758C17.7993 39.7378 16.2223 38.161 14.2838 38.161ZM15.0856 43.62C14.4565 43.8804 13.5238 43.8983 12.7922 43.167C12.0603 42.4352 12.0797 41.4983 12.3418 40.8655C12.6017 40.2379 13.2484 39.5672 14.2837 39.5672C15.4468 39.5672 16.393 40.5131 16.393 41.6758C16.393 42.7099 15.7176 43.3581 15.0856 43.62Z" fill="#2C2C2C"/>
</g>
<defs>
<clipPath id="clip0">
<rect width="48" height="48" fill="white"/>
</clipPath>
</defs>
</svg>
