<svg width="48" height="48" viewBox="0 0 48 48" fill="none" xmlns="http://www.w3.org/2000/svg">
<path d="M37.1999 24.8C33.9423 24.8 31.2511 27.248 30.8551 30.4H21.9999V25.5C22.8319 25.2928 23.5511 24.7656 24.0047 24.0016L34.3407 6.5208C34.9455 5.5008 34.9559 4.276 34.3687 3.2456C33.7815 2.2152 32.7231 1.6 31.5367 1.6H29.7191C29.2679 0.6576 28.3127 0 27.1999 0C25.9231 0 22.7999 0.9816 22.7999 2.8C22.7999 4.6184 25.9231 5.6 27.1999 5.6C28.6063 5.6 29.7631 4.5536 29.9591 3.2H31.5359C32.1399 3.2 32.6791 3.5136 32.9775 4.0384C33.2767 4.5624 33.2711 5.1864 32.9631 5.7064L22.6271 23.1872C22.3255 23.696 21.7919 24 21.1999 24C20.6079 24 20.0743 23.696 19.7671 23.1792L9.1423 5.7056C8.8343 5.1864 8.8287 4.5624 9.1279 4.0384C9.4271 3.5136 9.9663 3.2 10.5695 3.2H12.4399C12.6367 4.5536 13.7935 5.6 15.1999 5.6C16.4767 5.6 19.5999 4.6184 19.5999 2.8C19.5999 0.9816 16.4767 0 15.1999 0C14.0871 0 13.1319 0.6576 12.6807 1.6H10.5695C9.3831 1.6 8.3247 2.216 7.7375 3.2464C7.1503 4.2768 7.1607 5.5008 7.7703 6.5288L18.3959 24.0024C18.8487 24.7664 19.5679 25.2928 20.3999 25.5V30.4H13.1999C8.3479 30.4 4.3999 34.348 4.3999 39.2C4.3999 44.052 8.3479 48 13.1999 48C18.0519 48 21.9999 44.052 21.9999 39.2V32H30.8551C31.2511 35.152 33.9423 37.6 37.1999 37.6C40.7287 37.6 43.5999 34.7288 43.5999 31.2C43.5999 27.6712 40.7287 24.8 37.1999 24.8ZM27.1999 4C26.2127 4 24.5135 3.2088 24.4015 2.8C24.5135 2.3912 26.2127 1.6 27.1999 1.6C27.8615 1.6 28.3999 2.1384 28.3999 2.8C28.3999 3.4616 27.8615 4 27.1999 4ZM15.1999 1.6C16.1871 1.6 17.8863 2.3912 17.9983 2.8C17.8863 3.2088 16.1871 4 15.1999 4C14.5383 4 13.9999 3.4616 13.9999 2.8C13.9999 2.1384 14.5383 1.6 15.1999 1.6ZM20.3999 39.2C20.3999 43.1704 17.1695 46.4 13.1999 46.4C9.2303 46.4 5.9999 43.1704 5.9999 39.2C5.9999 35.2296 9.2303 32 13.1999 32H20.3999V39.2ZM37.1999 36C34.5527 36 32.3999 33.8472 32.3999 31.2C32.3999 28.5528 34.5527 26.4 37.1999 26.4C39.8471 26.4 41.9999 28.5528 41.9999 31.2C41.9999 33.8472 39.8471 36 37.1999 36Z" fill="#2C2C2C"/>
<path d="M37.2 28C35.4352 28 34 29.4352 34 31.2C34 32.9648 35.4352 34.4 37.2 34.4C38.9648 34.4 40.4 32.9648 40.4 31.2C40.4 29.4352 38.9648 28 37.2 28ZM37.2 32.8C36.3176 32.8 35.6 32.0824 35.6 31.2C35.6 30.3176 36.3176 29.6 37.2 29.6C38.0824 29.6 38.8 30.3176 38.8 31.2C38.8 32.0824 38.0824 32.8 37.2 32.8Z" fill="#2C2C2C"/>
</svg>
